<?xml version="1.0" encoding="UTF-8" standalone="no"?>
<svg xmlns="http://www.w3.org/2000/svg" id="Layer_1" data-name="Layer 1" viewBox="0 0 32 32"><defs><style>.cls-1{fill:red;}</style></defs><title>1</title><path class="cls-1" d="M22.45313,17.65625A18.34805,18.34805,0,0,0,19.626,12.16748,1.75781,1.75781,0,0,1,19.29,11.18506a1.92534,1.92534,0,0,1,.31055-0.94336l0.08252-.082a0.5149,0.5149,0,0,0,.08252-0.10937,2.518,2.518,0,0,0,.3042-1.59668V4.40479a0.5,0.5,0,1,0-1,0V6.77637c-0.042-.03174-0.085-0.0625-0.12939-0.0918a2.54616,2.54616,0,0,0-2.96063.19171,2.59072,2.59072,0,0,0-3.00031-.178c-0.0376.02637-.07373,0.0542-0.10937,0.08252v-2.376a0.5,0.5,0,0,0-1,0V8.78516a0.50514,0.50514,0,0,0,.03516.18506,2.5111,2.5111,0,0,0,.31787,1.05908l0.06006,0.11963a0.49642,0.49642,0,0,0,.0625.0957,1.57827,1.57827,0,0,1,.36426.94043,1.72707,1.72707,0,0,1-.3125.9502A18.48258,18.48258,0,0,0,9.48438,17.667a34.4012,34.4012,0,0,0-.79443,8.33789,0.47335,0.47335,0,0,0,.01819.09009,0.47335,0.47335,0,0,0-.01819.09009c0,0.95264,1.24365,1.6543,3.34521,1.87891,0.28027,0.019.57617,0.02979,0.87939,0.02979a7.89136,7.89136,0,0,0,3.44019-.64465,7.15777,7.15777,0,0,0,3.27515.61584c0.86328,0,3.68018-.09229,3.68018-1.27979V26.00488A30.961,30.961,0,0,0,22.45313,17.65625ZM12.123,27.06787c-1.73291-.18555-2.43311-0.69971-2.43311-0.88281A0.47335,0.47335,0,0,0,9.67175,26.095a0.47335,0.47335,0,0,0,.01819-0.09009,33.48321,33.48321,0,0,1,.76318-8.09082,17.71659,17.71659,0,0,1,2.75293-5.19189A2.75775,2.75775,0,0,0,13.71,11.18506a2.55306,2.55306,0,0,0-.55811-1.53369l-0.04639-.09131a1.49106,1.49106,0,0,1,2.458-1.68457,0.46908,0.46908,0,0,0,.051.04767,0.46813,0.46813,0,0,0,.04669.05487c0.008,0.00629.01776,0.00745,0.026,0.01318a0.47558,0.47558,0,0,0,.09119.04614,0.57573,0.57573,0,0,0,.2771.0365,0.89157,0.89157,0,0,0,.18066-0.071c0.00781-.005.017-0.00562,0.02466-0.01111a0.46515,0.46515,0,0,0,.0462-0.0495A0.47344,0.47344,0,0,0,16.36328,7.894a1.51919,1.51919,0,0,1,2.70654.61523V8.78516a0.49336,0.49336,0,0,0,.02246.14795,1.55647,1.55647,0,0,1-.16748.56982l-0.06787.06738a0.5373,0.5373,0,0,0-.06348.07764A2.92269,2.92269,0,0,0,18.29,11.18506a2.788,2.788,0,0,0,.52734,1.56934,17.23133,17.23133,0,0,1,2.66992,5.16113,29.727,29.727,0,0,1,.82135,7.92932,9.81525,9.81525,0,0,0-2.67877-.34c-0.55688,0-3.12122.05365-3.59656,0.97137A7.32256,7.32256,0,0,1,12.123,27.06787Zm7.50684-.00293a8.49511,8.49511,0,0,1-2.34912-.27979,8.47153,8.47153,0,0,1,2.34912-.28027,8.47291,8.47291,0,0,1,2.34961.28027A8.49649,8.49649,0,0,1,19.62988,27.06494Z" style="fill: #010101;"/>
	<metadata>
		<rdf:RDF xmlns:rdf="http://www.w3.org/1999/02/22-rdf-syntax-ns#" xmlns:rdfs="http://www.w3.org/2000/01/rdf-schema#" xmlns:dc="http://purl.org/dc/elements/1.1/">
			<rdf:Description about="https://iconscout.com/legal#licenses" dc:title="3 gown dress wedding cloth fashion beauty woman lady girl" dc:description="3 gown dress wedding cloth fashion beauty woman lady girl" dc:publisher="Iconscout" dc:date="2017-03-07" dc:format="image/svg+xml" dc:language="en">
				<dc:creator>
					<rdf:Bag>
						<rdf:li>Jemis Mali</rdf:li>
					</rdf:Bag>
				</dc:creator>
			</rdf:Description>
		</rdf:RDF>
    </metadata></svg>
