<svg width="601" height="505" viewBox="0 0 601 505" fill="none" xmlns="http://www.w3.org/2000/svg">
<circle cx="99" cy="85" r="25" fill="#FE6F67"/>
<circle cx="290" cy="282" r="25" fill="#A1A2A5"/>
<circle cx="25" cy="308" r="25" fill="#C5534D"/>
<circle cx="340" cy="25" r="25" fill="#8A8A8A"/>
<circle cx="229" cy="480" r="25" fill="#A66666"/>
<path d="M575 257L580.613 274.275H598.776L584.082 284.951L589.695 302.225L575 291.549L560.305 302.225L565.918 284.951L551.224 274.275H569.387L575 257Z" fill="#C5534D"/>
<path d="M576 50L597.651 87.5H554.349L576 50Z" fill="#FE6F67"/>
<path d="M510 417L515.613 434.275H533.776L519.082 444.951L524.695 462.225L510 451.549L495.305 462.225L500.918 444.951L486.224 434.275H504.387L510 417Z" fill="#D69FB7"/>
</svg>
