<svg width="651" height="555" viewBox="0 0 651 555" fill="none" xmlns="http://www.w3.org/2000/svg">
<circle cx="124" cy="110" r="50" fill="#FE6F67"/>
<circle cx="315" cy="307" r="50" fill="#A1A2A5"/>
<circle cx="50" cy="333" r="50" fill="#C5534D"/>
<circle cx="365" cy="50" r="50" fill="#8A8A8A"/>
<circle cx="254" cy="505" r="50" fill="#A66666"/>
<path d="M600 257L611.226 291.549H647.553L618.164 312.902L629.389 347.451L600 326.098L570.611 347.451L581.836 312.902L552.447 291.549H588.774L600 257Z" fill="#C5534D"/>
<path d="M601 50L644.301 125H557.699L601 50Z" fill="#FE6F67"/>
<path d="M535 417L546.226 451.549H582.553L553.164 472.902L564.389 507.451L535 486.098L505.611 507.451L516.836 472.902L487.447 451.549H523.774L535 417Z" fill="#D69FB7"/>
</svg>
