<svg xmlns="http://www.w3.org/2000/svg" data-name="Layer 1" viewBox="0 0 512 512"><path d="M225.22,437a7.5,7.5,0,1,0-7.5,7.5A7.5,7.5,0,0,0,225.22,437Zm-37.63,30.25a7.5,7.5,0,1,0,7.5,7.5A7.5,7.5,0,0,0,187.59,467.24Zm41.64-8.91a7.5,7.5,0,1,0,7.5,7.5A7.49,7.49,0,0,0,229.23,458.33Zm37.12-35.82a7.5,7.5,0,1,0-7.5,7.5A7.5,7.5,0,0,0,266.35,422.51Zm-93.63,11.14a7.5,7.5,0,1,0,7.5,7.5A7.5,7.5,0,0,0,172.72,433.65Zm98.83,7.5a7.5,7.5,0,1,0,7.5,7.5A7.5,7.5,0,0,0,271.55,441.15ZM53.39,469.3a7.5,7.5,0,1,0,7.5,7.5A7.5,7.5,0,0,0,53.39,469.3Zm44.46-2.06a7.5,7.5,0,1,0,7.5,7.5A7.5,7.5,0,0,0,97.85,467.24Zm45,0a7.5,7.5,0,1,0,7.5,7.5A7.5,7.5,0,0,0,142.85,467.24Zm-30.13-33.59a7.5,7.5,0,1,0,7.5,7.5A7.5,7.5,0,0,0,112.72,433.65Zm337.37-150a7.5,7.5,0,1,0,7.5,7.5A7.5,7.5,0,0,0,450.09,283.63Zm-.24,44.55a7.5,7.5,0,1,0,7.5,7.5A7.5,7.5,0,0,0,449.85,328.18Zm22.5-124a7.5,7.5,0,1,0-7.5-7.5A7.5,7.5,0,0,0,472.35,204.13ZM298.11,407.51a7.5,7.5,0,1,0,7.5,7.5A7.5,7.5,0,0,0,298.11,407.51Zm137-202.4a7.5,7.5,0,1,0,7.5,7.5A7.5,7.5,0,0,0,435.09,205.11Zm38.87-67-30.43-30.16a13.51,13.51,0,0,0-21.31,3L284.13,356.45a92.67,92.67,0,0,1-103,44.79c4.67-4.86,8-10.92,6.15-17.7C182.82,367,153,366.9,127.2,373.87c-13.21,3.56-25.21,8.86-33.8,14.9-7.54,5.31-16,13.73-13.27,23.7a14.54,14.54,0,0,0,2.39,4.92L15.57,454.88a30.59,30.59,0,0,0-6.72,48.17A30,30,0,0,0,30.3,512H252.51a60.27,60.27,0,0,0,52.25-30.51l91.89-161.76a9.36,9.36,0,0,1,8.11-4.75,9.21,9.21,0,0,1,6.6,2.77,9.47,9.47,0,0,1,2.76,6.72V496a16,16,0,0,0,16,16h19.3a16,16,0,0,0,16-16V432.72A337.67,337.67,0,0,1,499,286,129.16,129.16,0,0,0,474,138.1ZM131.11,388.35c24.29-6.56,39.2-3.39,41.63-.88-.47,1.9-4.22,5.94-11.68,10.28a7.84,7.84,0,0,0-.85.49,104.21,104.21,0,0,1-23.89,9.42c-17.4,4.7-30,4.41-36.62,2.94a7.38,7.38,0,0,0-1.21-.3,8.84,8.84,0,0,1-3.8-1.76C95.52,405.15,106.81,394.91,131.11,388.35ZM485.54,279.47a352.92,352.92,0,0,0-35.2,153.25V496a1,1,0,0,1-1,1h-19.3a1,1,0,0,1-1-1V324.47A24.41,24.41,0,0,0,422,307.18a24.28,24.28,0,0,0-38.4,5.15L291.72,474.07A45.25,45.25,0,0,1,252.51,497H30.3a15.08,15.08,0,0,1-10.8-4.52A15.58,15.58,0,0,1,22.9,468l75.64-42.36a64.41,64.41,0,0,0,11.25.91,120.46,120.46,0,0,0,30.44-4.38,124.09,124.09,0,0,0,25-9.61l10,2.7a107.66,107.66,0,0,0,122-51.42L434.35,120l29,28.79A114.67,114.67,0,0,1,497,229.64,113,113,0,0,1,485.54,279.47Zm-28.19-35.59a7.5,7.5,0,1,0,7.5,7.5A7.5,7.5,0,0,0,457.35,243.88ZM343,328.18a7.5,7.5,0,1,0,7.5,7.5A7.5,7.5,0,0,0,343,328.18Zm-22.46,39.67a7.5,7.5,0,1,0,7.5,7.5A7.5,7.5,0,0,0,320.57,367.85Zm44.92-79.33A7.5,7.5,0,1,0,373,296,7.5,7.5,0,0,0,365.49,288.52Zm77.1-118.9a7.5,7.5,0,1,0-7.5-7.5A7.5,7.5,0,0,0,442.59,169.62Zm-42.23,81.76a7.5,7.5,0,1,0,7.5,7.5A7.5,7.5,0,0,0,400.36,251.38Z"/></svg>