<?xml version="1.0" encoding="UTF-8"?><!DOCTYPE svg PUBLIC "-//W3C//DTD SVG 1.1//EN" "http://www.w3.org/Graphics/SVG/1.1/DTD/svg11.dtd"><svg xmlns="http://www.w3.org/2000/svg" xmlns:xlink="http://www.w3.org/1999/xlink" version="1.1" id="Layer_1" x="0px" y="0px" width="64px" height="64px" viewBox="0 0 64 64" xml:space="preserve"><g id="Skirt"><path fill="#BAD6EE" d="M27.143 18.772s-.777 15.764-8.384 27.893c0 0-6.716-.783-10.367-5.031 0 0 6.729-6.055 8.729-13.413 0 0 2.788-8.765 4.614-11.543 0 0 2.57 1.392 5.401 2.095l.007-.001z"/><path fill="#BAD6EE" d="M37.402 18.619s1.281 21.291 8.658 28.046l-.037.149c4.99.226 9.535-4.916 9.535-4.916-5.812-1.489-8.047-15.123-8.047-15.123-2.421-7.93-4.012-10.344-4.012-10.344-1.508 1.071-4.628 1.814-6.097 2.188"/><g fill="none" stroke="#5E8BC7" stroke-linecap="round" stroke-linejoin="round" stroke-miterlimit="10"><path d="M23.155 14.708s7.67 5.363 18.697 0c0 0 4.319 3.948 5.66 12.068 0 0 2.235 13.633 8.047 15.123 0 0-4.545 5.142-9.535 4.916 0 0-.433.795.037 1.418 0 0-3.763.668-5.254 2.233 0 0-3.277 1.339-4.619 0 0 0-2.756-.298-4.095.595 0 0-2.684.82-6.408 0 0 0-4.258-4.06-7.758-3.166 0 0 .532-.11.831-1.229 0 0-6.716-.783-10.367-5.031 0 0 6.729-6.055 8.729-13.413.001-.001 3.456-11.211 6.035-13.514z"/><path d="M27.612 16.549c2.408.599 5.69.884 9.586-.114v-.002s1.485 23.478 8.862 30.232l-.037.149s-.433.795.037 1.418c0 0-3.763.668-5.254 2.233 0 0-3.277 1.339-4.619 0 0 0-2.756-.298-4.095.595 0 0-2.684.82-6.408 0 0 0-4.258-4.06-7.758-3.166 0 0 .532-.11.831-1.229 7.606-12.129 8.858-30.116 8.858-30.116h-.003z"/><path d="M27.617 16.549s-1.252 17.987-8.858 30.116c0 0-6.716-.783-10.367-5.031 0 0 6.729-6.055 8.729-13.413 0 0 3.455-11.21 6.034-13.513 0 0 1.625 1.137 4.457 1.841h.005z"/><path d="M37.198 16.433s1.485 23.478 8.862 30.232l-.037.149c4.99.226 9.535-4.916 9.535-4.916-5.812-1.489-8.047-15.123-8.047-15.123-1.341-8.12-5.66-12.068-5.66-12.068a24.555 24.555 0 0 1-4.653 1.727"/></g></g><metadata><rdf:RDF xmlns:rdf="http://www.w3.org/1999/02/22-rdf-syntax-ns#" xmlns:rdfs="http://www.w3.org/2000/01/rdf-schema#" xmlns:dc="http://purl.org/dc/elements/1.1/"><rdf:Description about="https://iconscout.com/legal#licenses" dc:title="skirt" dc:description="skirt" dc:publisher="Iconscout" dc:date="2017-09-22" dc:format="image/svg+xml" dc:language="en"><dc:creator><rdf:Bag><rdf:li>Creativebin</rdf:li></rdf:Bag></dc:creator></rdf:Description></rdf:RDF></metadata></svg>