<svg xmlns="http://www.w3.org/2000/svg" width="88" height="88" data-name="Layer 1" viewBox="0 0 88 88"><path fill="#e10018" d="M43.13,31.88l4.5-1.26,1.9,6.77L45,38.66ZM35,41.8,33,35.08l4.48-1.37,2.06,6.72Z"/><path fill="#010200" d="M83.05,34.37,80.44,33.2l-1,.37a17.49,17.49,0,0,1-5.82,1c-7.29,0-12.75-5.12-13.28-9.9l-.17-1.55L57.62,22l-1,.29c-.28.08-27.68,8.24-38.37,11.53C5.81,37.62,5,50.23,4.94,50.76V66H83.07V36.15l0-1.78ZM19.89,39c8.7-2.68,28.54-8.6,35.69-10.73C57.93,35,65.37,40,73.59,40a23.55,23.55,0,0,0,4-.35V51H10.4C10.5,49.88,11.54,41.57,19.89,39Zm-9.5,21.56V56.41H77.61v4.16Z"/></svg>