<svg xmlns="http://www.w3.org/2000/svg" enable-background="new 0 0 32 32" viewBox="0 0 32 32"><path d="M31.20703,9.41761c0,0-3.39063-4.59375-3.39063-4.59375c-0.16406-0.22266-0.38672-0.39502-0.64258-0.49902l-6.21198-2.52216c-0.41326-0.16529-0.9022-0.16028-1.29267,0.06397c-0.46185,0.23185-0.75258,0.72417-0.79174,1.2326C18.67871,3.36536,17.66455,3.92151,16,3.92151s-2.67871-0.55615-2.87744-0.82227c-0.02618-0.99495-1.14964-1.70858-2.06203-1.30563c0.00002-0.00003-6.23436,2.53122-6.23436,2.53122c-0.25586,0.104-0.47852,0.27637-0.64258,0.49902L0.79297,9.41761c-0.38623,0.52295-0.39111,1.23535-0.01221,1.76416l3.67188,5.125c0.48821,0.71366,1.57728,0.83697,2.20789,0.24356c0,0.00003,0.74621,12.36093,0.74621,12.36093c0.04736,0.79199,0.70361,1.40967,1.49707,1.40967h14.19238c0.79346,0,1.44971-0.61768,1.49707-1.40967c0,0,0.74622-12.3609,0.74622-12.3609c0.62897,0.59189,1.72141,0.4715,2.20788-0.24362c0.00001,0.00003,3.67188-5.12497,3.67188-5.12497C31.59814,10.65296,31.59326,9.94056,31.20703,9.41761z M26.20313,13.03187l-2.9248-3.29736c-1.3368-1.45186-3.5261,0.49441-2.2441,1.99126c-0.00004-0.00005,1.49001,1.67976,1.49001,1.67976l-0.84015,13.9154H10.31592c0,0-0.84015-13.9154-0.84015-13.9154l1.49005-1.67981c1.2854-1.49723-0.91283-3.44272-2.24418-1.99116c0.00004-0.00005-2.92476,3.29731-2.92476,3.29731l-1.94238-2.71045l2.49219-3.37598l4.53516-1.84131C11.86328,6.2179,13.72314,6.92151,16,6.92151c2.27698,0,4.13159-0.70569,5.11328-1.81964c0,0,4.54004,1.84357,4.54004,1.84357l2.49219,3.37598L26.20313,13.03187z"/></svg>